name ./resultDataOpenSim/trcMotMarkerGrf/sub09/grf-15-08.mot
datacolumns 19
datarows 22
range 0.93200000 1.01600000
endheader

                time	     ground_force_vx	     ground_force_vy	     ground_force_vz	     ground_force_px	     ground_force_py	     ground_force_pz	   l_ground_force_vx	   l_ground_force_vy	   l_ground_force_vz	   l_ground_force_px	   l_ground_force_py	   l_ground_force_pz	     ground_torque_x	     ground_torque_y	     ground_torque_z	   l_ground_torque_x	   l_ground_torque_y	   l_ground_torque_z	
          0.93200000	          0.00000000	          0.00000000	          0.00000000	          0.00000000	          0.00000000	          0.00000000	         29.24130902	        508.69450331	          8.11267003	          0.13287526	         -0.09999900	          0.01654646	          0.00000000	          0.00000000	          0.00000000	          0.00000000	          0.61460081	          0.00000000	
          0.93600000	          0.00000000	          0.00000000	          0.00000000	          0.00000000	          0.00000000	          0.00000000	         31.45014028	        500.03190646	          7.36955771	          0.13405855	         -0.09999900	          0.01760882	          0.00000000	          0.00000000	          0.00000000	          0.00000000	          0.41882858	          0.00000000	
          0.94000000	          0.00000000	          0.00000000	          0.00000000	          0.00000000	          0.00000000	          0.00000000	         33.73052916	        492.46293702	          6.44080588	          0.13530905	         -0.09999900	          0.01879018	          0.00000000	          0.00000000	          0.00000000	          0.00000000	          0.21008218	          0.00000000	
          0.94400000	          0.00000000	          0.00000000	          0.00000000	          0.00000000	          0.00000000	          0.00000000	         36.15289611	        485.83197100	          5.30663880	          0.13665961	         -0.09999900	          0.02009164	          0.00000000	          0.00000000	          0.00000000	          0.00000000	         -0.01411771	          0.00000000	
          0.94800000	          0.00000000	          0.00000000	          0.00000000	          0.00000000	          0.00000000	          0.00000000	         38.74987954	        479.89519826	          3.99316910	          0.13811009	         -0.09999900	          0.02148431	          0.00000000	          0.00000000	          0.00000000	          0.00000000	         -0.25530379	          0.00000000	
          0.95200000	          0.00000000	          0.00000000	          0.00000000	          0.00000000	          0.00000000	          0.00000000	         41.48790228	        474.36645824	          2.51171000	          0.13964809	         -0.09999900	          0.02293073	          0.00000000	          0.00000000	          0.00000000	          0.00000000	         -0.51414775	          0.00000000	
          0.95600000	          0.00000000	          0.00000000	          0.00000000	          0.00000000	          0.00000000	          0.00000000	         44.28435411	        469.03519934	          0.83244757	          0.14127590	         -0.09999900	          0.02440347	          0.00000000	          0.00000000	          0.00000000	          0.00000000	         -0.79054369	          0.00000000	
          0.96000000	          0.00000000	          0.00000000	          0.00000000	          0.00000000	          0.00000000	          0.00000000	         47.04852885	        463.88601304	         -1.08639781	          0.14299586	         -0.09999913	          0.02589090	          0.00000000	          0.00000000	          0.00000000	          0.00000000	         -1.08332883	          0.00000000	
          0.96400000	          0.00000000	          0.00000000	          0.00000000	          0.00000000	          0.00000000	          0.00000000	         49.71240081	        459.10760302	         -3.25181621	          0.14477628	         -0.09999921	          0.02739339	          0.00000000	          0.00000000	          0.00000000	          0.00000000	         -1.38975004	          0.00000000	
          0.96800000	          0.00000000	          0.00000000	          0.00000000	          0.00000000	          0.00000000	          0.00000000	         52.23222907	        454.99350316	         -5.61662205	          0.14655766	         -0.09999921	          0.02890878	          0.00000000	          0.00000000	          0.00000000	          0.00000000	         -1.70508077	          0.00000000	
          0.97200000	          0.00000000	          0.00000000	          0.00000000	          0.00000000	          0.00000000	          0.00000000	         54.56440897	        451.82682096	         -8.09566409	          0.14828659	         -0.09999971	          0.03042217	          0.00000000	          0.00000000	          0.00000000	          0.00000000	         -2.02265261	          0.00000000	
          0.97600000	          0.00000000	          0.00000000	          0.00000000	          0.00000000	          0.00000000	          0.00000000	         56.65061962	        449.77506227	        -10.59890356	          0.14993714	         -0.09999987	          0.03191260	          0.00000000	          0.00000000	          0.00000000	          0.00000000	         -2.33419152	          0.00000000	
          0.98000000	          0.00000000	          0.00000000	          0.00000000	          0.00000000	          0.00000000	          0.00000000	         58.44407099	        448.80088331	        -13.06331800	          0.15150290	         -0.10000000	          0.03335534	          0.00000000	          0.00000000	          0.00000000	          0.00000000	         -2.63017588	          0.00000000	
          0.98400000	          0.00000000	          0.00000000	          0.00000000	          0.00000000	          0.00000000	          0.00000000	         59.95105722	        448.65069680	        -15.45027771	          0.15300247	         -0.10000000	          0.03473008	          0.00000000	          0.00000000	          0.00000000	          0.00000000	         -2.90015049	          0.00000000	
          0.98800000	          0.00000000	          0.00000000	          0.00000000	          0.00000000	          0.00000000	          0.00000000	         61.23810701	        448.94178424	        -17.70005185	          0.15444781	         -0.10000000	          0.03601854	          0.00000000	          0.00000000	          0.00000000	          0.00000000	         -3.13325058	          0.00000000	
          0.99200000	          0.00000000	          0.00000000	          0.00000000	          0.00000000	          0.00000000	          0.00000000	         62.39736054	        449.28037812	        -19.70462746	          0.15582914	         -0.10000000	          0.03720246	          0.00000000	          0.00000000	          0.00000000	          0.00000000	         -3.31920803	          0.00000000	
          0.99600000	          0.00000000	          0.00000000	          0.00000000	          0.00000000	          0.00000000	          0.00000000	         63.50362442	        449.34633591	        -21.33967140	          0.15712750	         -0.10000000	          0.03828265	          0.00000000	          0.00000000	          0.00000000	          0.00000000	         -3.44979815	          0.00000000	
          1.00000000	          0.00000000	          0.00000000	          0.00000000	          0.00000000	          0.00000000	          0.00000000	         64.59640602	        448.93089424	        -22.52391664	          0.15833340	         -0.10000000	          0.03927949	          0.00000000	          0.00000000	          0.00000000	          0.00000000	         -3.52034003	          0.00000000	
          1.00400000	          0.00000000	          0.00000000	          0.00000000	          0.00000000	          0.00000000	          0.00000000	         65.69237444	        447.93280097	        -23.25298078	          0.15942831	         -0.10000000	          0.04020074	          0.00000000	          0.00000000	          0.00000000	          0.00000000	         -3.53071068	          0.00000000	
          1.00800000	          0.00000000	          0.00000000	          0.00000000	          0.00000000	          0.00000000	          0.00000000	         66.81425207	        446.33482053	        -23.58085942	          0.16039272	         -0.10000000	          0.04103857	          0.00000000	          0.00000000	          0.00000000	          0.00000000	         -3.48545577	          0.00000000	
          1.01200000	          0.00000000	          0.00000000	          0.00000000	          0.00000000	          0.00000000	          0.00000000	         68.00956864	        444.18986712	        -23.57912555	          0.16118183	         -0.10000000	          0.04177610	          0.00000000	          0.00000000	          0.00000000	          0.00000000	         -3.39299297	          0.00000000	
          1.01600000	          0.00000000	          0.00000000	          0.00000000	          0.00000000	          0.00000000	          0.00000000	         69.33162348	        441.59732814	        -23.31445159	          0.16175424	         -0.10000000	          0.04240249	          0.00000000	          0.00000000	          0.00000000	          0.00000000	         -3.26434550	          0.00000000	
